solid Visualization Toolkit generated SLA File
 facet normal 0 0 1
  outer loop
   vertex 25 20 25
   vertex 30 25 25
   vertex 20 25 25
  endloop
 endfacet
 facet normal 0.666667 0.666667 -0.333333
  outer loop
   vertex 25 20 25
   vertex 20 25 25
   vertex 25 22.5 30
  endloop
 endfacet
 facet normal 0.666667 -0.666667 0.333333
  outer loop
   vertex 25 20 25
   vertex 30 25 25
   vertex 25 22.5 30
  endloop
 endfacet
 facet normal -0 0.894427 0.447214
  outer loop
   vertex 30 25 25
   vertex 20 25 25
   vertex 25 22.5 30
  endloop
 endfacet
 facet normal 0 -0.894427 0.447214
  outer loop
   vertex -20 0 10
   vertex -10 0 10
   vertex -15 5 20
  endloop
 endfacet
 facet normal 0.894427 0 0.447214
  outer loop
   vertex -10 0 10
   vertex -10 10 10
   vertex -15 5 20
  endloop
 endfacet
 facet normal -0 0.894427 0.447214
  outer loop
   vertex -10 10 10
   vertex -20 10 10
   vertex -15 5 20
  endloop
 endfacet
 facet normal -0.894427 0 0.447214
  outer loop
   vertex -20 10 10
   vertex -20 0 10
   vertex -15 5 20
  endloop
 endfacet
 facet normal 0 0 1
  outer loop
   vertex -20 0 10
   vertex -10 0 10
   vertex -20 10 10
  endloop
 endfacet
 facet normal 0 0 1
  outer loop
   vertex -10 0 10
   vertex -10 10 10
   vertex -20 10 10
  endloop
 endfacet
 facet normal 0 -0 1
  outer loop
   vertex 0 0 0
   vertex 10 0 0
   vertex 10 10 0
  endloop
 endfacet
 facet normal 0 0 -1
  outer loop
   vertex 0 0 0
   vertex 0 10 0
   vertex 10 10 0
  endloop
 endfacet
 facet normal -1 0 0
  outer loop
   vertex 10 0 0
   vertex 10 0 10
   vertex 10 10 10
  endloop
 endfacet
 facet normal 1 0 -0
  outer loop
   vertex 10 0 0
   vertex 10 10 0
   vertex 10 10 10
  endloop
 endfacet
 facet normal 0 0 -1
  outer loop
   vertex 10 0 10
   vertex 0 0 10
   vertex 0 10 10
  endloop
 endfacet
 facet normal 0 0 1
  outer loop
   vertex 10 0 10
   vertex 10 10 10
   vertex 0 10 10
  endloop
 endfacet
 facet normal 1 0 0
  outer loop
   vertex 0 0 10
   vertex 0 0 0
   vertex 0 10 0
  endloop
 endfacet
 facet normal -1 -0 -0
  outer loop
   vertex 0 0 10
   vertex 0 10 10
   vertex 0 10 0
  endloop
 endfacet
 facet normal 0 -1 0
  outer loop
   vertex 0 0 0
   vertex 10 0 0
   vertex 10 0 10
  endloop
 endfacet
 facet normal -0 1 0
  outer loop
   vertex 0 0 0
   vertex 0 0 10
   vertex 10 0 10
  endloop
 endfacet
 facet normal 0 -1 0
  outer loop
   vertex 0 10 0
   vertex 10 10 0
   vertex 10 10 10
  endloop
 endfacet
 facet normal -0 1 0
  outer loop
   vertex 0 10 0
   vertex 0 10 10
   vertex 10 10 10
  endloop
 endfacet
 facet normal 0 -0 1
  outer loop
   vertex 10 0 0
   vertex 20 0 0
   vertex 20 10 0
  endloop
 endfacet
 facet normal 0 0 -1
  outer loop
   vertex 10 0 0
   vertex 10 10 0
   vertex 20 10 0
  endloop
 endfacet
 facet normal -1 0 0
  outer loop
   vertex 20 0 0
   vertex 20 0 10
   vertex 20 10 10
  endloop
 endfacet
 facet normal 1 0 -0
  outer loop
   vertex 20 0 0
   vertex 20 10 0
   vertex 20 10 10
  endloop
 endfacet
 facet normal 0 0 -1
  outer loop
   vertex 20 0 10
   vertex 10 0 10
   vertex 10 10 10
  endloop
 endfacet
 facet normal 0 0 1
  outer loop
   vertex 20 0 10
   vertex 20 10 10
   vertex 10 10 10
  endloop
 endfacet
 facet normal 1 0 0
  outer loop
   vertex 10 0 10
   vertex 10 0 0
   vertex 10 10 0
  endloop
 endfacet
 facet normal -1 -0 -0
  outer loop
   vertex 10 0 10
   vertex 10 10 10
   vertex 10 10 0
  endloop
 endfacet
 facet normal 0 -1 0
  outer loop
   vertex 10 0 0
   vertex 20 0 0
   vertex 20 0 10
  endloop
 endfacet
 facet normal -0 1 0
  outer loop
   vertex 10 0 0
   vertex 10 0 10
   vertex 20 0 10
  endloop
 endfacet
 facet normal 0 -1 0
  outer loop
   vertex 10 10 0
   vertex 20 10 0
   vertex 20 10 10
  endloop
 endfacet
 facet normal -0 1 0
  outer loop
   vertex 10 10 0
   vertex 10 10 10
   vertex 20 10 10
  endloop
 endfacet
 facet normal 0 -0 1
  outer loop
   vertex 0 0 10
   vertex 20 0 10
   vertex 20 10 10
  endloop
 endfacet
 facet normal 0 0 -1
  outer loop
   vertex 0 0 10
   vertex 0 10 10
   vertex 20 10 10
  endloop
 endfacet
 facet normal -1 0 0
  outer loop
   vertex 20 0 10
   vertex 20 0 20
   vertex 20 10 20
  endloop
 endfacet
 facet normal 1 0 -0
  outer loop
   vertex 20 0 10
   vertex 20 10 10
   vertex 20 10 20
  endloop
 endfacet
 facet normal 0 0 -1
  outer loop
   vertex 20 0 20
   vertex 0 0 20
   vertex 0 10 20
  endloop
 endfacet
 facet normal 0 0 1
  outer loop
   vertex 20 0 20
   vertex 20 10 20
   vertex 0 10 20
  endloop
 endfacet
 facet normal 1 0 0
  outer loop
   vertex 0 0 20
   vertex 0 0 10
   vertex 0 10 10
  endloop
 endfacet
 facet normal -1 -0 -0
  outer loop
   vertex 0 0 20
   vertex 0 10 20
   vertex 0 10 10
  endloop
 endfacet
 facet normal 0 -1 0
  outer loop
   vertex 0 0 10
   vertex 20 0 10
   vertex 20 0 20
  endloop
 endfacet
 facet normal -0 1 0
  outer loop
   vertex 0 0 10
   vertex 0 0 20
   vertex 20 0 20
  endloop
 endfacet
 facet normal 0 -1 0
  outer loop
   vertex 0 10 10
   vertex 20 10 10
   vertex 20 10 20
  endloop
 endfacet
 facet normal -0 1 0
  outer loop
   vertex 0 10 10
   vertex 0 10 20
   vertex 20 10 20
  endloop
 endfacet
endsolid
